<svg xmlns="http://www.w3.org/2000/svg" xmlns:xlink="http://www.w3.org/1999/xlink" width="332.345" height="104.925" viewBox="0 0 332.345 104.925">
  <defs>
    <clipPath id="clip-path">
      <rect id="Rectangle_21" data-name="Rectangle 21" width="332.345" height="104.925" fill="#004e70"/>
    </clipPath>
  </defs>
  <g id="logo-entidad" transform="translate(0 0)">
    <g id="Group_3" data-name="Group 3" transform="translate(0 0)" clip-path="url(#clip-path)">
      <path id="Path_3218" data-name="Path 3218" d="M64.632,47.306H33.695q-4.959,0-7.71-.063c-1.835-.036-3.194-.058-4.075-.058H19.49a18.68,18.68,0,0,1-7.71-2.366,22.407,22.407,0,0,1-6.162-5.155,23.694,23.694,0,0,1-4.129-7.278A25.468,25.468,0,0,1,0,23.655a25.065,25.065,0,0,1,1.709-9.216A24.015,24.015,0,0,1,6.288,6.913,21.878,21.878,0,0,1,13.067,1.88,19.234,19.234,0,0,1,21.5,0H67.8a15.052,15.052,0,0,1,6.5,1.457A16.851,16.851,0,0,1,79.655,5.4a18.829,18.829,0,0,1,3.585,5.879,19.99,19.99,0,0,1,1.322,7.278v9.824H21.581a4.164,4.164,0,0,1-3.027-1.453A4.81,4.81,0,0,1,17.4,23.655a4.81,4.81,0,0,1,1.156-3.275,4.082,4.082,0,0,1,2.919-1.457h54.39V18.68a9.4,9.4,0,0,0-2.424-6.549,7.729,7.729,0,0,0-5.946-2.667H21.474a11.8,11.8,0,0,0-5.011,1.093,12.058,12.058,0,0,0-4.075,3.027,15.631,15.631,0,0,0-2.753,4.552,14.687,14.687,0,0,0-1.044,5.519,14.3,14.3,0,0,0,3.248,9.4,12.587,12.587,0,0,0,8,4.673H50.931q4.959,0,7.719.058c1.835.04,3.216.063,4.134.063h2.262a18.981,18.981,0,0,1,7.66,2.361,21.8,21.8,0,0,1,6.23,5.218,24.569,24.569,0,0,1,4.138,7.341,25.222,25.222,0,0,1,1.489,8.609,24.822,24.822,0,0,1-1.714,9.275,24.19,24.19,0,0,1-4.574,7.462A21.79,21.79,0,0,1,71.5,83.146a18.955,18.955,0,0,1-8.321,1.88H16.76A14.934,14.934,0,0,1,10.2,83.569a16.937,16.937,0,0,1-5.29-3.94A18.9,18.9,0,0,1,1.322,73.8,19.358,19.358,0,0,1,0,66.589V56.644H63.089a3.825,3.825,0,0,1,3.032,1.574,5.292,5.292,0,0,1,0,6.311A3.8,3.8,0,0,1,63.089,66.1H8.591v.247a9.391,9.391,0,0,0,2.42,6.549,7.723,7.723,0,0,0,5.946,2.667H63.089a11.456,11.456,0,0,0,4.957-1.093A13.437,13.437,0,0,0,72.121,71.5a14.367,14.367,0,0,0,2.807-4.489,15.514,15.514,0,0,0,.166-10.737,14.714,14.714,0,0,0-2.424-4.3,13.672,13.672,0,0,0-3.576-3.09,12.193,12.193,0,0,0-4.462-1.579" transform="translate(0 0.002)" fill="#004e70"/>
      <path id="Path_3219" data-name="Path 3219" d="M104.283,37.72v47.3h-47.4a34.654,34.654,0,0,1-14.4-3.819,39,39,0,0,1-11.708-9.221A43.638,43.638,0,0,1,22.909,58.7a45.053,45.053,0,0,1-2.856-16.13,45.593,45.593,0,0,1,2.856-16.193A43.688,43.688,0,0,1,30.776,13.04,39.053,39.053,0,0,1,42.485,3.823,34.659,34.659,0,0,1,56.887,0h47.4V28.5H57a11.636,11.636,0,0,0-8.168,4.485A14.578,14.578,0,0,0,45.6,42.452a14.469,14.469,0,0,0,3.248,9.518,12.672,12.672,0,0,0,8.2,4.669H87.217V66.1H57.049A20.073,20.073,0,0,1,49.232,63.8a21.738,21.738,0,0,1-6.369-5.141,24.683,24.683,0,0,1-5.852-16.152,25.091,25.091,0,0,1,1.484-8.587,24.516,24.516,0,0,1,4.129-7.314,21.98,21.98,0,0,1,6.167-5.2A18.727,18.727,0,0,1,56.5,19.04H95.7V9.464H56.937a26.555,26.555,0,0,0-11.065,3.095A30.711,30.711,0,0,0,36.9,19.773a34.259,34.259,0,0,0-6.054,10.309,34.928,34.928,0,0,0-2.2,12.491A35.046,35.046,0,0,0,30.844,55,33.193,33.193,0,0,0,36.9,65.311a31.256,31.256,0,0,0,8.974,7.156,26.689,26.689,0,0,0,11.065,3.095H95.7V47.184H55.066V37.72Z" transform="translate(70.146 0.002)" fill="#004e70"/>
      <path id="Path_3220" data-name="Path 3220" d="M103.374,0a18.994,18.994,0,0,1,8.312,1.88,21.946,21.946,0,0,1,6.774,5.033,24.268,24.268,0,0,1,4.566,7.521,25.1,25.1,0,0,1,1.709,9.216,24.605,24.605,0,0,1-1.709,9.158,25.135,25.135,0,0,1-4.566,7.521,21.444,21.444,0,0,1-6.774,5.1,18.994,18.994,0,0,1-8.312,1.88l-54.282-.121V75.562h8.587V56.644H66.27V85.026H40.505v-47.3l62.869.117a10.965,10.965,0,0,0,4.957-1.151,14.173,14.173,0,0,0,4.071-3.032,13.523,13.523,0,0,0,2.753-4.485,15.886,15.886,0,0,0,0-11.038,14.217,14.217,0,0,0-2.753-4.552,12.97,12.97,0,0,0-4.071-3.032,11.536,11.536,0,0,0-4.957-1.093H49.092v9.464h54.282a4.184,4.184,0,0,1,2.861,1.453,4.689,4.689,0,0,1,1.21,3.275,4.674,4.674,0,0,1-1.21,3.275,4.38,4.38,0,0,1-3.081,1.457H40.505V0Z" transform="translate(141.687 0.002)" fill="#004e70"/>
      <path id="Path_3221" data-name="Path 3221" d="M218.068,101.7H0v-9H213.876l34.9-41.512,14,12.113L322.8.814l6.491,6.234L263.345,75.7,249.784,63.97Z" transform="translate(0 2.848)" fill="#f7941e"/>
      <rect id="Rectangle_19" data-name="Rectangle 19" width="32.552" height="8.587" transform="translate(299.793 0.004)" fill="#f7941e"/>
      <rect id="Rectangle_20" data-name="Rectangle 20" width="8.587" height="32.552" transform="translate(323.758 0.004)" fill="#f7941e"/>
      <path id="Path_3222" data-name="Path 3222" d="M50.579,79.89,73.712,53.023l12.932,11.5L141.4,7.157l.1,6.41h13.921V79.89Z" transform="translate(176.926 25.036)" fill="#004e70"/>
    </g>
  </g>
</svg>
