<?xml version="1.0" encoding="UTF-8"?><svg id="Layer_1" xmlns="http://www.w3.org/2000/svg" width="83.52mm" height="17.02mm" viewBox="0 0 236.75 48.24"><path d="M61.25,21.85l-2.7-3.9h-2.98v3.9h-3.24V7.85h6.06c1.24,0,2.32.21,3.23.62.91.41,1.62,1,2.11,1.76.49.76.74,1.66.74,2.7s-.25,1.94-.75,2.69c-.5.75-1.21,1.33-2.13,1.73l3.14,4.5h-3.48ZM60.43,11.12c-.51-.42-1.25-.63-2.22-.63h-2.64v4.88h2.64c.97,0,1.71-.21,2.22-.64.51-.43.76-1.03.76-1.8s-.25-1.39-.76-1.81Z" fill="#231f20" stroke-width="0"/><path d="M77.29,17.35h-8.14c.15.67.49,1.19,1.04,1.58.55.39,1.23.58,2.04.58.56,0,1.06-.08,1.49-.25.43-.17.84-.43,1.21-.79l1.66,1.8c-1.01,1.16-2.49,1.74-4.44,1.74-1.21,0-2.29-.24-3.22-.71-.93-.47-1.65-1.13-2.16-1.97-.51-.84-.76-1.79-.76-2.86s.25-2,.75-2.85,1.19-1.51,2.06-1.98c.87-.47,1.85-.71,2.93-.71s2.01.23,2.86.68c.85.45,1.52,1.1,2.01,1.95.49.85.73,1.83.73,2.95,0,.04-.02.32-.06.84ZM69.99,13.89c-.48.4-.77.95-.88,1.64h5.3c-.11-.68-.4-1.22-.88-1.63-.48-.41-1.07-.61-1.76-.61s-1.3.2-1.78.6Z" fill="#231f20" stroke-width="0"/><path d="M88.52,11.62c.82.46,1.46,1.11,1.93,1.94.47.83.7,1.8.7,2.91s-.23,2.08-.7,2.91c-.47.83-1.11,1.48-1.93,1.94-.82.46-1.73.69-2.73.69-1.37,0-2.45-.43-3.24-1.3v5.02h-3.12v-14.64h2.98v1.24c.77-.93,1.9-1.4,3.38-1.4,1,0,1.91.23,2.73.69ZM87.22,18.64c.51-.54.77-1.26.77-2.17s-.26-1.63-.77-2.17c-.51-.54-1.17-.81-1.97-.81s-1.46.27-1.97.81c-.51.54-.77,1.26-.77,2.17s.26,1.63.77,2.17c.51.54,1.17.81,1.97.81s1.46-.27,1.97-.81Z" fill="#231f20" stroke-width="0"/><path d="M95.3,21.3c-.9-.47-1.6-1.13-2.11-1.97-.51-.84-.76-1.79-.76-2.86s.25-2.02.76-2.86c.51-.84,1.21-1.5,2.11-1.97.9-.47,1.92-.71,3.05-.71s2.15.24,3.04.71c.89.47,1.59,1.13,2.1,1.97.51.84.76,1.79.76,2.86s-.25,2.02-.76,2.86-1.21,1.5-2.1,1.97c-.89.47-1.91.71-3.04.71s-2.15-.24-3.05-.71ZM100.32,18.64c.51-.54.77-1.26.77-2.17s-.26-1.63-.77-2.17c-.51-.54-1.17-.81-1.97-.81s-1.46.27-1.98.81c-.52.54-.78,1.26-.78,2.17s.26,1.63.78,2.17c.52.54,1.18.81,1.98.81s1.46-.27,1.97-.81Z" fill="#231f20" stroke-width="0"/><path d="M107.33,21.68c-.85-.22-1.53-.5-2.04-.83l1.04-2.24c.48.31,1.06.56,1.74.75.68.19,1.35.29,2,.29,1.32,0,1.98-.33,1.98-.98,0-.31-.18-.53-.54-.66s-.91-.25-1.66-.34c-.88-.13-1.61-.29-2.18-.46-.57-.17-1.07-.48-1.49-.92s-.63-1.07-.63-1.88c0-.68.2-1.28.59-1.81.39-.53.97-.94,1.72-1.23.75-.29,1.64-.44,2.67-.44.76,0,1.52.08,2.27.25.75.17,1.38.4,1.87.69l-1.04,2.22c-.95-.53-1.98-.8-3.1-.8-.67,0-1.17.09-1.5.28-.33.19-.5.43-.5.72,0,.33.18.57.54.7.36.13.93.26,1.72.38.88.15,1.6.3,2.16.47.56.17,1.05.47,1.46.91.41.44.62,1.05.62,1.84,0,.67-.2,1.26-.6,1.78s-.98.92-1.75,1.21-1.68.43-2.73.43c-.89,0-1.77-.11-2.62-.33Z" fill="#231f20" stroke-width="0"/><path d="M117.1,9.09c-.36-.33-.54-.75-.54-1.24s.18-.91.54-1.24c.36-.33.83-.5,1.4-.5s1.04.16,1.4.48c.36.32.54.72.54,1.2,0,.52-.18.95-.54,1.29-.36.34-.83.51-1.4.51s-1.04-.17-1.4-.5ZM116.95,11.09h3.12v10.76h-3.12v-10.76Z" fill="#231f20" stroke-width="0"/><path d="M129.9,21.33c-.31.23-.68.4-1.13.51-.45.11-.92.17-1.41.17-1.28,0-2.27-.33-2.97-.98s-1.05-1.61-1.05-2.88v-4.42h-1.66v-2.4h1.66v-2.62h3.12v2.62h2.68v2.4h-2.68v4.38c0,.45.12.8.35,1.05s.56.37.99.37c.49,0,.91-.13,1.26-.4l.84,2.2Z" fill="#231f20" stroke-width="0"/><path d="M133.39,21.3c-.9-.47-1.6-1.13-2.11-1.97-.51-.84-.76-1.79-.76-2.86s.25-2.02.76-2.86c.51-.84,1.21-1.5,2.11-1.97.9-.47,1.92-.71,3.05-.71s2.15.24,3.04.71c.89.47,1.59,1.13,2.1,1.97.51.84.76,1.79.76,2.86s-.25,2.02-.76,2.86-1.21,1.5-2.1,1.97c-.89.47-1.91.71-3.04.71s-2.15-.24-3.05-.71ZM138.42,18.64c.51-.54.77-1.26.77-2.17s-.26-1.63-.77-2.17c-.51-.54-1.17-.81-1.97-.81s-1.46.27-1.98.81c-.52.54-.78,1.26-.78,2.17s.26,1.63.78,2.17c.52.54,1.18.81,1.98.81s1.46-.27,1.97-.81Z" fill="#231f20" stroke-width="0"/><path d="M148.91,11.33c.63-.27,1.36-.4,2.19-.4v2.88c-.35-.03-.58-.04-.7-.04-.89,0-1.59.25-2.1.75-.51.5-.76,1.25-.76,2.25v5.08h-3.12v-10.76h2.98v1.42c.37-.52.88-.91,1.51-1.18Z" fill="#231f20" stroke-width="0"/><path d="M153.12,9.09c-.36-.33-.54-.75-.54-1.24s.18-.91.54-1.24c.36-.33.83-.5,1.4-.5s1.04.16,1.4.48c.36.32.54.72.54,1.2,0,.52-.18.95-.54,1.29-.36.34-.83.51-1.4.51s-1.04-.17-1.4-.5ZM152.97,11.09h3.12v10.76h-3.12v-10.76Z" fill="#231f20" stroke-width="0"/><path d="M161.05,21.3c-.9-.47-1.6-1.13-2.11-1.97-.51-.84-.76-1.79-.76-2.86s.25-2.02.76-2.86c.51-.84,1.21-1.5,2.11-1.97.9-.47,1.92-.71,3.05-.71s2.15.24,3.04.71c.89.47,1.59,1.13,2.1,1.97.51.84.76,1.79.76,2.86s-.25,2.02-.76,2.86-1.21,1.5-2.1,1.97c-.89.47-1.91.71-3.04.71s-2.15-.24-3.05-.71ZM166.07,18.64c.51-.54.77-1.26.77-2.17s-.26-1.63-.77-2.17c-.51-.54-1.17-.81-1.97-.81s-1.46.27-1.98.81c-.52.54-.78,1.26-.78,2.17s.26,1.63.78,2.17c.52.54,1.18.81,1.98.81s1.46-.27,1.97-.81Z" fill="#231f20" stroke-width="0"/><path d="M65.07,39.85l-.02-8.4-4.12,6.92h-1.46l-4.1-6.74v8.22h-3.04v-14h2.68l5.24,8.7,5.16-8.7h2.66l.04,14h-3.04Z" fill="#231f20" stroke-width="0"/><path d="M79.39,30.12c.89.79,1.34,1.99,1.34,3.59v6.14h-2.92v-1.34c-.59,1-1.68,1.5-3.28,1.5-.83,0-1.54-.14-2.15-.42-.61-.28-1.07-.67-1.39-1.16-.32-.49-.48-1.05-.48-1.68,0-1,.38-1.79,1.13-2.36.75-.57,1.92-.86,3.49-.86h2.48c0-.68-.21-1.2-.62-1.57-.41-.37-1.03-.55-1.86-.55-.57,0-1.14.09-1.69.27-.55.18-1.02.42-1.41.73l-1.12-2.18c.59-.41,1.29-.73,2.11-.96.82-.23,1.66-.34,2.53-.34,1.67,0,2.95.4,3.84,1.19ZM76.73,37.54c.41-.25.71-.61.88-1.09v-1.1h-2.14c-1.28,0-1.92.42-1.92,1.26,0,.4.16.72.47.95.31.23.74.35,1.29.35s1.01-.12,1.42-.37Z" fill="#231f20" stroke-width="0"/><path d="M92.64,29.62c.82.46,1.46,1.11,1.93,1.94.47.83.7,1.8.7,2.91s-.23,2.08-.7,2.91c-.47.83-1.11,1.48-1.93,1.94-.82.46-1.73.69-2.73.69-1.37,0-2.45-.43-3.24-1.3v5.02h-3.12v-14.64h2.98v1.24c.77-.93,1.9-1.4,3.38-1.4,1,0,1.91.23,2.73.69ZM91.34,36.64c.51-.54.77-1.26.77-2.17s-.26-1.63-.77-2.17c-.51-.54-1.17-.81-1.97-.81s-1.46.27-1.97.81c-.51.54-.77,1.26-.77,2.17s.26,1.63.77,2.17c.51.54,1.17.81,1.97.81s1.46-.27,1.97-.81Z" fill="#231f20" stroke-width="0"/><path d="M105.35,30.12c.89.79,1.34,1.99,1.34,3.59v6.14h-2.92v-1.34c-.59,1-1.68,1.5-3.28,1.5-.83,0-1.54-.14-2.15-.42-.61-.28-1.07-.67-1.39-1.16-.32-.49-.48-1.05-.48-1.68,0-1,.38-1.79,1.13-2.36.75-.57,1.92-.86,3.49-.86h2.48c0-.68-.21-1.2-.62-1.57-.41-.37-1.03-.55-1.86-.55-.57,0-1.14.09-1.69.27-.55.18-1.02.42-1.41.73l-1.12-2.18c.59-.41,1.29-.73,2.11-.96.82-.23,1.66-.34,2.53-.34,1.67,0,2.95.4,3.84,1.19ZM102.69,37.54c.41-.25.71-.61.88-1.09v-1.1h-2.14c-1.28,0-1.92.42-1.92,1.26,0,.4.16.72.47.95.31.23.74.35,1.29.35s1.01-.12,1.42-.37Z" fill="#231f20" stroke-width="0"/><path d="M109.73,25.85h3.24v14h-3.24v-14Z" fill="#231f20" stroke-width="0"/><path d="M125.84,30.13c.82.8,1.23,1.99,1.23,3.56v6.16h-3.12v-5.68c0-.85-.19-1.49-.56-1.91s-.91-.63-1.62-.63c-.79,0-1.41.24-1.88.73-.47.49-.7,1.21-.7,2.17v5.32h-3.12v-10.76h2.98v1.26c.41-.45.93-.8,1.54-1.05s1.29-.37,2.02-.37c1.33,0,2.41.4,3.23,1.2Z" fill="#231f20" stroke-width="0"/><path d="M140.37,29.09l-4.54,10.76h-3.22l-4.52-10.76h3.22l2.98,7.32,3.08-7.32h3Z" fill="#231f20" stroke-width="0"/><path d="M151.83,35.35h-8.14c.15.67.49,1.19,1.04,1.58.55.39,1.23.58,2.04.58.56,0,1.06-.08,1.49-.25.43-.17.84-.43,1.21-.79l1.66,1.8c-1.01,1.16-2.49,1.74-4.44,1.74-1.21,0-2.29-.24-3.22-.71-.93-.47-1.65-1.13-2.16-1.97-.51-.84-.76-1.79-.76-2.86s.25-2,.75-2.85,1.19-1.51,2.06-1.98c.87-.47,1.85-.71,2.93-.71s2.01.23,2.86.68c.85.45,1.52,1.1,2.01,1.95.49.85.73,1.83.73,2.95,0,.04-.02.32-.06.84ZM144.53,31.89c-.48.4-.77.95-.88,1.64h5.3c-.11-.68-.4-1.22-.88-1.63-.48-.41-1.07-.61-1.76-.61s-1.3.2-1.78.6Z" fill="#231f20" stroke-width="0"/><path d="M158.46,29.33c.63-.27,1.36-.4,2.19-.4v2.88c-.35-.03-.58-.04-.7-.04-.89,0-1.59.25-2.1.75-.51.5-.76,1.25-.76,2.25v5.08h-3.12v-10.76h2.98v1.42c.37-.52.88-.91,1.51-1.18Z" fill="#231f20" stroke-width="0"/><path d="M163.55,39.68c-.85-.22-1.53-.5-2.04-.83l1.04-2.24c.48.31,1.06.56,1.74.75.68.19,1.35.29,2,.29,1.32,0,1.98-.33,1.98-.98,0-.31-.18-.53-.54-.66s-.91-.25-1.66-.34c-.88-.13-1.61-.29-2.18-.46-.57-.17-1.07-.48-1.49-.92s-.63-1.07-.63-1.88c0-.68.2-1.28.59-1.81.39-.53.97-.94,1.72-1.23.75-.29,1.64-.44,2.67-.44.76,0,1.52.08,2.27.25.75.17,1.38.4,1.87.69l-1.04,2.22c-.95-.53-1.98-.8-3.1-.8-.67,0-1.17.09-1.5.28-.33.19-.5.43-.5.72,0,.33.18.57.54.7.36.13.93.26,1.72.38.88.15,1.6.3,2.16.47.56.17,1.05.47,1.46.91.41.44.62,1.05.62,1.84,0,.67-.2,1.26-.6,1.78s-.98.92-1.75,1.21-1.68.43-2.73.43c-.89,0-1.77-.11-2.62-.33Z" fill="#231f20" stroke-width="0"/><path d="M173.33,27.09c-.36-.33-.54-.75-.54-1.24s.18-.91.54-1.24c.36-.33.83-.5,1.4-.5s1.04.16,1.4.48c.36.32.54.72.54,1.2,0,.52-.18.95-.54,1.29-.36.34-.83.51-1.4.51s-1.04-.17-1.4-.5ZM173.17,29.09h3.12v10.76h-3.12v-10.76Z" fill="#231f20" stroke-width="0"/><path d="M181.26,39.3c-.9-.47-1.6-1.13-2.11-1.97-.51-.84-.76-1.79-.76-2.86s.25-2.02.76-2.86c.51-.84,1.21-1.5,2.11-1.97.9-.47,1.92-.71,3.05-.71s2.15.24,3.04.71c.89.47,1.59,1.13,2.1,1.97.51.84.76,1.79.76,2.86s-.25,2.02-.76,2.86-1.21,1.5-2.1,1.97c-.89.47-1.91.71-3.04.71s-2.15-.24-3.05-.71ZM186.28,36.64c.51-.54.77-1.26.77-2.17s-.26-1.63-.77-2.17c-.51-.54-1.17-.81-1.97-.81s-1.46.27-1.98.81c-.52.54-.78,1.26-.78,2.17s.26,1.63.78,2.17c.52.54,1.18.81,1.98.81s1.46-.27,1.97-.81Z" fill="#231f20" stroke-width="0"/><path d="M202.06,30.13c.82.8,1.23,1.99,1.23,3.56v6.16h-3.12v-5.68c0-.85-.19-1.49-.56-1.91s-.91-.63-1.62-.63c-.79,0-1.41.24-1.88.73-.47.49-.7,1.21-.7,2.17v5.32h-3.12v-10.76h2.98v1.26c.41-.45.93-.8,1.54-1.05s1.29-.37,2.02-.37c1.33,0,2.41.4,3.23,1.2Z" fill="#231f20" stroke-width="0"/><path d="M216.71,35.35h-8.14c.15.67.49,1.19,1.04,1.58.55.39,1.23.58,2.04.58.56,0,1.06-.08,1.49-.25.43-.17.84-.43,1.21-.79l1.66,1.8c-1.01,1.16-2.49,1.74-4.44,1.74-1.21,0-2.29-.24-3.22-.71-.93-.47-1.65-1.13-2.16-1.97-.51-.84-.76-1.79-.76-2.86s.25-2,.75-2.85,1.19-1.51,2.06-1.98c.87-.47,1.85-.71,2.93-.71s2.01.23,2.86.68c.85.45,1.52,1.1,2.01,1.95.49.85.73,1.83.73,2.95,0,.04-.02.32-.06.84ZM209.41,31.89c-.48.4-.77.95-.88,1.64h5.3c-.11-.68-.4-1.22-.88-1.63-.48-.41-1.07-.61-1.76-.61s-1.3.2-1.78.6Z" fill="#231f20" stroke-width="0"/><path d="M219.85,39.68c-.85-.22-1.53-.5-2.04-.83l1.04-2.24c.48.31,1.06.56,1.74.75.68.19,1.35.29,2,.29,1.32,0,1.98-.33,1.98-.98,0-.31-.18-.53-.54-.66s-.91-.25-1.66-.34c-.88-.13-1.61-.29-2.18-.46-.57-.17-1.07-.48-1.49-.92s-.63-1.07-.63-1.88c0-.68.2-1.28.59-1.81.39-.53.97-.94,1.72-1.23.75-.29,1.64-.44,2.67-.44.76,0,1.52.08,2.27.25.75.17,1.38.4,1.87.69l-1.04,2.22c-.95-.53-1.98-.8-3.1-.8-.67,0-1.17.09-1.5.28-.33.19-.5.43-.5.72,0,.33.18.57.54.7.36.13.93.26,1.72.38.88.15,1.6.3,2.16.47.56.17,1.05.47,1.46.91.41.44.62,1.05.62,1.84,0,.67-.2,1.26-.6,1.78s-.98.92-1.75,1.21-1.68.43-2.73.43c-.89,0-1.77-.11-2.62-.33Z" fill="#231f20" stroke-width="0"/><polygon points="28.63 6.65 6.44 6.65 6.44 6.65 6.29 6.65 6.29 29.48 9.15 26.22 9.15 9.51 28.63 9.51 28.63 6.65" fill="#231f20" stroke-width="0"/><polygon points="30.51 6.65 30.51 9.51 36.6 9.51 18.17 28.68 13.52 24.65 6.29 33.23 6.29 37.88 13.85 28.9 18.37 32.8 38.48 11.87 38.48 11.86 38.48 17.49 41.34 17.49 41.34 9.51 41.34 6.65 41.34 6.65 30.51 6.65" fill="#f26322" stroke-width="0"/><polygon points="6.44 41.59 14.14 32.64 18.44 36.47 36.68 17.37 36.71 19.5 41.34 19.5 41.34 41.59 6.44 41.59" fill="#231f20" stroke-width="0"/></svg>